<svg xmlns="http://www.w3.org/2000/svg" height="301" width="301" viewBox="0 0 301 301"><path stroke="#000" stroke-width="2" fill="none" d="M1 201h99v99H1z"/><text font-size="20" y="1012.783" x="36.188" font-family="sans-serif" word-spacing="0" letter-spacing="0" transform="translate(0 -751.36)"><tspan font-size="30" y="1012.783" x="36.188">-1</tspan></text><path stroke="#000" stroke-width="2" fill="none" d="M101 201h99v99h-99z"/><text font-size="20" y="1012.797" x="140.964" font-family="sans-serif" word-spacing="0" letter-spacing="0" transform="translate(0 -751.36)"><tspan font-size="30" y="1012.797" x="140.964">0</tspan></text><path stroke="#000" stroke-width="2" fill="none" d="M201 201h99v99h-99z"/><text font-size="20" y="1012.783" x="240.693" font-family="sans-serif" word-spacing="0" letter-spacing="0" transform="translate(0 -751.36)"><tspan font-size="30" y="1012.783" x="240.693">1</tspan></text><path stroke="#000" stroke-width="2" fill="none" d="M201 101h99v99h-99z"/><text font-size="20" y="912.797" x="241.359" font-family="sans-serif" word-spacing="0" letter-spacing="0" transform="translate(0 -751.36)"><tspan font-size="30" y="912.797" x="241.359">2</tspan></text><path stroke="#000" stroke-width="2" fill="none" d="M201 1h99v99h-99z"/><text font-size="20" y="812.782" x="240.693" font-family="sans-serif" word-spacing="0" letter-spacing="0" transform="translate(0 -751.36)"><tspan font-size="30" y="812.782" x="240.693">1</tspan></text><path stroke="#000" stroke-width="2" fill="none" d="M101 1h99v99h-99z"/><text font-size="20" y="812.797" x="140.964" font-family="sans-serif" word-spacing="0" letter-spacing="0" transform="translate(0 -751.36)"><tspan font-size="30" y="812.797" x="140.964">0</tspan></text><path stroke="#000" fill="none" d="M101 101h99v99h-99z"/><text font-size="20" y="912.797" x="140.964" font-family="sans-serif" word-spacing="0" letter-spacing="0" transform="translate(0 -751.36)"><tspan font-size="30" y="912.797" x="140.964">0</tspan></text><path stroke="#000" stroke-width="2" fill="none" d="M1 101h99v99H1z"/><text font-size="20" y="912.797" x="36.306" font-family="sans-serif" word-spacing="0" letter-spacing="0" transform="translate(0 -751.36)"><tspan font-size="30" y="912.797" x="36.306">-2</tspan></text><path stroke="#000" stroke-width="2" fill="none" d="M1 1h99v99H1z"/><text font-size="20" y="812.782" x="36.188" font-family="sans-serif" word-spacing="0" letter-spacing="0" transform="translate(0 -751.36)"><tspan font-size="30" y="812.782" x="36.188">-1</tspan></text></svg>