<svg xmlns="http://www.w3.org/2000/svg" width="191.49mm" height="170.69mm" viewBox="0 0 542.81 483.84"><defs><style>.cls-1{fill:#ea4335;}.cls-2{fill:#4285f4;}.cls-3{fill:#34a853;}.cls-4{fill:#fbbc05;}.cls-5{fill:#777;}</style></defs><title>Main</title><g id="Main"><path class="cls-1" d="M316.74,97.35l10.65.19,28.93-29,1.39-12.27a129.46,129.46,0,0,0-86.34-32.92c-60,0-110.54,40.82-125.52,96.12,3.16-2.21,9.92-.55,9.92-.55l57.82-9.52s3-4.92,4.47-4.63a72,72,0,0,1,98.68-7.46Z"/><path class="cls-2" d="M397,119.62a130.37,130.37,0,0,0-39.25-63.31l-41,41a72.2,72.2,0,0,1,26.95,56.25v7.24a36.15,36.15,0,0,1,0,72.3H271.44l-7.23,7.28v43.39l7.23,7.2h72.25A94,94,0,0,0,397,119.62Z"/><path class="cls-3" d="M199.12,291h72.21V233.15H199.12a35.91,35.91,0,0,1-14.87-3.23l-10.42,3.19L144.9,262.06l-2.53,9.78A93.46,93.46,0,0,0,199.12,291Z"/><path class="cls-4" d="M199.12,103a94,94,0,0,0-56.72,168.9L184.29,230a36.14,36.14,0,1,1,47.76-47.8l41.89-41.92A93.78,93.78,0,0,0,199.12,103Z"/><path class="cls-5" d="M40.18,419.44c0-17.63,14.82-32,32.45-32a30.47,30.47,0,0,1,21.92,8.81l-6.16,6.16a22.27,22.27,0,0,0-15.76-6.24,23.25,23.25,0,0,0,0,46.49c8.35,0,13.11-3.35,16.15-6.39,2.5-2.5,4.13-6.09,4.76-11H72.63v-8.74H102a28.63,28.63,0,0,1,.47,5.46c0,6.56-1.79,14.67-7.57,20.44-5.61,5.85-12.79,9-22.31,9-17.63,0-32.45-14.35-32.45-32"/><path class="cls-5" d="M126.28,410.23A20.6,20.6,0,1,0,147,430.83a20.31,20.31,0,0,0-20.67-20.6m0,33.08c-6.24,0-11.63-5.15-11.63-12.48s5.39-12.48,11.63-12.48,11.62,5.07,11.62,12.48-5.38,12.48-11.62,12.48"/><path class="cls-5" d="M171.37,410.23A20.6,20.6,0,1,0,192,430.83a20.3,20.3,0,0,0-20.67-20.6m0,33.08c-6.24,0-11.62-5.15-11.62-12.48s5.38-12.48,11.62-12.48S183,423.42,183,430.83s-5.38,12.48-11.62,12.48"/><path class="cls-5" d="M226.72,411.48v3.36h-.31a14.27,14.27,0,0,0-10.84-4.61c-10.3,0-19.74,9-19.74,20.68s9.44,20.51,19.74,20.51a14,14,0,0,0,10.84-4.68h.31v3c0,7.87-4.21,12.09-11,12.09-5.53,0-9-4-10.37-7.34l-7.88,3.28a19.62,19.62,0,0,0,18.25,12.17c10.61,0,19.58-6.24,19.58-21.45v-37Zm-10.37,31.83c-6.24,0-11.47-5.23-11.47-12.4s5.23-12.56,11.47-12.56,11,5.3,11,12.56-4.84,12.4-11,12.4"/><rect class="cls-5" x="241.54" y="389.64" width="9.05" height="60.53"/><path class="cls-5" d="M275.4,443.31c-4.6,0-7.88-2.11-10-6.24L293,425.68l-.93-2.34c-1.72-4.6-6.95-13.11-17.63-13.11S255,418.58,255,430.83a20.15,20.15,0,0,0,20.44,20.59,20.46,20.46,0,0,0,17.16-9.13l-7-4.68c-2.34,3.44-5.54,5.7-10.14,5.7m-.7-25.12c3.59,0,6.63,1.79,7.64,4.37l-18.41,7.64a11.3,11.3,0,0,1,10.77-12"/><path class="cls-5" d="M310.7,422.25c0-16.62,12.56-29.18,29-29.18a26.44,26.44,0,0,1,20.51,9.13l-5,4.84c-3.9-4.84-9.13-7.1-15.52-7.1-11.78,0-21.69,8.58-21.69,22.31s9.91,22.31,21.69,22.31a22.58,22.58,0,0,0,17.16-8.12l5,5a28.75,28.75,0,0,1-22.15,10c-16.46,0-29-12.56-29-29.17"/><rect class="cls-5" x="367.48" y="394.32" width="7.18" height="55.85"/><path class="cls-5" d="M419.36,431.06c0,11.62-8.19,20.36-19.66,20.36S380,442.68,380,431.06s8.19-20.36,19.66-20.36,19.66,8.74,19.66,20.36m-7.18,0c0-8.74-6.08-13.81-12.48-13.81s-12.48,5.07-12.48,13.81,6.08,13.81,12.48,13.81,12.48-5.07,12.48-13.81"/><path class="cls-5" d="M451.81,450.17v-5.3h-.32a14.59,14.59,0,0,1-12.09,6.55c-9.82,0-14.58-6.63-14.58-16.07V412H432v22.23c0,8,4,10.69,9.44,10.69,6.24,0,10.06-6,10.06-11.86V412h7.18v38.22Z"/><path class="cls-5" d="M464.44,431.06c0-11.7,8.5-20.36,18.18-20.36,6.08,0,10.84,3,13,6.55H496l-.32-5.3V394.32h7.18v55.85H496v-5.3h-.32c-2.18,3.51-6.94,6.55-13,6.55-9.68,0-18.18-8.66-18.18-20.36m31.52,0c0-8.74-5.78-13.81-12.17-13.81s-12.17,5.23-12.17,13.81,5.77,13.81,12.17,13.81S496,439.8,496,431.06"/></g></svg>